<mxfile>
    <diagram id="ELYW4xQQd6fKQPEEbhgO" name="Page-1">
        <mxGraphModel dx="1461" dy="697" grid="1" gridSize="10" guides="1" tooltips="1" connect="1" arrows="1" fold="1" page="1" pageScale="1" pageWidth="850" pageHeight="1100" math="0" shadow="0">
            <root>
                <mxCell id="0"/>
                <mxCell id="1" parent="0"/>
                <mxCell id="2" value="" style="rounded=0;whiteSpace=wrap;html=1;fillColor=#FFCC99;strokeColor=#303030;" vertex="1" parent="1">
                    <mxGeometry x="70" y="70" width="870" height="650" as="geometry"/>
                </mxCell>
                <mxCell id="3" value="" style="rounded=0;whiteSpace=wrap;html=1;strokeColor=#303030;fillColor=#FFFF99;" vertex="1" parent="1">
                    <mxGeometry x="80" y="80" width="850" height="100" as="geometry"/>
                </mxCell>
                <mxCell id="4" value="" style="rounded=0;whiteSpace=wrap;html=1;strokeColor=#303030;fillColor=#FFCC99;" vertex="1" parent="1">
                    <mxGeometry x="170" y="100" width="120" height="60" as="geometry"/>
                </mxCell>
                <mxCell id="7" value="" style="rounded=0;whiteSpace=wrap;html=1;strokeColor=#303030;fillColor=#FFFF99;" vertex="1" parent="1">
                    <mxGeometry x="80" y="660" width="850" height="30" as="geometry"/>
                </mxCell>
                <mxCell id="8" value="" style="rounded=0;whiteSpace=wrap;html=1;strokeColor=#303030;fillColor=#FFFF99;" vertex="1" parent="1">
                    <mxGeometry x="80" y="190" width="850" height="460" as="geometry"/>
                </mxCell>
                <mxCell id="9" value="" style="rounded=0;whiteSpace=wrap;html=1;strokeColor=#303030;fillColor=#FFCC99;" vertex="1" parent="1">
                    <mxGeometry x="100" y="210" width="190" height="400" as="geometry"/>
                </mxCell>
                <mxCell id="10" value="" style="rounded=0;whiteSpace=wrap;html=1;strokeColor=#303030;fillColor=#FFCC99;" vertex="1" parent="1">
                    <mxGeometry x="320" y="210" width="590" height="400" as="geometry"/>
                </mxCell>
                <mxCell id="11" value="" style="rounded=0;whiteSpace=wrap;html=1;strokeColor=#303030;fillColor=#CCFFFF;" vertex="1" parent="1">
                    <mxGeometry x="135" y="250" width="120" height="90" as="geometry"/>
                </mxCell>
                <mxCell id="12" value="" style="rounded=0;whiteSpace=wrap;html=1;strokeColor=#303030;fillColor=#CCFFFF;" vertex="1" parent="1">
                    <mxGeometry x="135" y="375" width="120" height="90" as="geometry"/>
                </mxCell>
                <mxCell id="13" value="" style="rounded=0;whiteSpace=wrap;html=1;strokeColor=#303030;fillColor=#CCFFFF;" vertex="1" parent="1">
                    <mxGeometry x="720" y="225" width="160" height="165" as="geometry"/>
                </mxCell>
                <mxCell id="15" value="" style="rounded=0;whiteSpace=wrap;html=1;strokeColor=#303030;fillColor=#CCFFFF;" vertex="1" parent="1">
                    <mxGeometry x="530" y="225" width="160" height="165" as="geometry"/>
                </mxCell>
                <mxCell id="16" value="" style="rounded=0;whiteSpace=wrap;html=1;strokeColor=#303030;fillColor=#CCFFFF;" vertex="1" parent="1">
                    <mxGeometry x="345" y="225" width="160" height="165" as="geometry"/>
                </mxCell>
                <mxCell id="17" value="" style="rounded=0;whiteSpace=wrap;html=1;strokeColor=#303030;fillColor=#CCFFFF;" vertex="1" parent="1">
                    <mxGeometry x="345" y="400" width="160" height="165" as="geometry"/>
                </mxCell>
                <mxCell id="18" value="" style="rounded=0;whiteSpace=wrap;html=1;strokeColor=#303030;fillColor=#CCFFFF;" vertex="1" parent="1">
                    <mxGeometry x="530" y="400" width="160" height="165" as="geometry"/>
                </mxCell>
                <mxCell id="19" value="" style="rounded=0;whiteSpace=wrap;html=1;strokeColor=#303030;fillColor=#CCFFFF;" vertex="1" parent="1">
                    <mxGeometry x="720" y="400" width="160" height="165" as="geometry"/>
                </mxCell>
                <mxCell id="21" value="Wrapper.jsx" style="text;html=1;strokeColor=none;fillColor=none;align=center;verticalAlign=middle;whiteSpace=wrap;rounded=0;fontColor=#000000;fontSize=17;" vertex="1" parent="1">
                    <mxGeometry x="100" y="690" width="40" height="20" as="geometry"/>
                </mxCell>
                <mxCell id="23" value="Footer.jsx" style="text;html=1;strokeColor=none;fillColor=none;align=center;verticalAlign=middle;whiteSpace=wrap;rounded=0;fontColor=#000000;fontSize=17;" vertex="1" parent="1">
                    <mxGeometry x="120" y="665" width="40" height="20" as="geometry"/>
                </mxCell>
                <mxCell id="24" value="Content.jsx" style="text;html=1;strokeColor=none;fillColor=none;align=center;verticalAlign=middle;whiteSpace=wrap;rounded=0;fontColor=#000000;fontSize=17;" vertex="1" parent="1">
                    <mxGeometry x="120" y="620" width="40" height="20" as="geometry"/>
                </mxCell>
                <mxCell id="25" value="Topper.jsx" style="text;html=1;strokeColor=none;fillColor=none;align=center;verticalAlign=middle;whiteSpace=wrap;rounded=0;fontColor=#000000;fontSize=17;" vertex="1" parent="1">
                    <mxGeometry x="110" y="150" width="40" height="20" as="geometry"/>
                </mxCell>
                <mxCell id="26" value="logo" style="text;html=1;strokeColor=none;fillColor=none;align=center;verticalAlign=middle;whiteSpace=wrap;rounded=0;fontColor=#000000;fontSize=17;" vertex="1" parent="1">
                    <mxGeometry x="210" y="120" width="40" height="20" as="geometry"/>
                </mxCell>
                <mxCell id="27" value="Latest" style="text;html=1;strokeColor=none;fillColor=none;align=center;verticalAlign=middle;whiteSpace=wrap;rounded=0;fontColor=#000000;fontSize=17;" vertex="1" parent="1">
                    <mxGeometry x="130" y="580" width="40" height="20" as="geometry"/>
                </mxCell>
                <mxCell id="28" value="All products" style="text;html=1;strokeColor=none;fillColor=none;align=center;verticalAlign=middle;whiteSpace=wrap;rounded=0;fontColor=#000000;fontSize=17;" vertex="1" parent="1">
                    <mxGeometry x="330" y="580" width="120" height="20" as="geometry"/>
                </mxCell>
                <mxCell id="31" value="MediumCard.jsx&lt;br&gt;(1 product)" style="text;html=1;strokeColor=none;fillColor=none;align=center;verticalAlign=middle;whiteSpace=wrap;rounded=0;fontColor=#000000;fontSize=17;" vertex="1" parent="1">
                    <mxGeometry x="365" y="297.5" width="120" height="52.5" as="geometry"/>
                </mxCell>
                <mxCell id="32" value="MediumCard.jsx&lt;br&gt;(1 product)" style="text;html=1;strokeColor=none;fillColor=none;align=center;verticalAlign=middle;whiteSpace=wrap;rounded=0;fontColor=#000000;fontSize=17;" vertex="1" parent="1">
                    <mxGeometry x="555" y="297.5" width="120" height="52.5" as="geometry"/>
                </mxCell>
                <mxCell id="33" value="MediumCard.jsx&lt;br&gt;(1 product)" style="text;html=1;strokeColor=none;fillColor=none;align=center;verticalAlign=middle;whiteSpace=wrap;rounded=0;fontColor=#000000;fontSize=17;" vertex="1" parent="1">
                    <mxGeometry x="740" y="297.5" width="120" height="52.5" as="geometry"/>
                </mxCell>
                <mxCell id="34" value="MediumCard.jsx&lt;br&gt;(1 product)" style="text;html=1;strokeColor=none;fillColor=none;align=center;verticalAlign=middle;whiteSpace=wrap;rounded=0;fontColor=#000000;fontSize=17;" vertex="1" parent="1">
                    <mxGeometry x="740" y="456.25" width="120" height="52.5" as="geometry"/>
                </mxCell>
                <mxCell id="35" value="MediumCard.jsx&lt;br&gt;(1 product)" style="text;html=1;strokeColor=none;fillColor=none;align=center;verticalAlign=middle;whiteSpace=wrap;rounded=0;fontColor=#000000;fontSize=17;" vertex="1" parent="1">
                    <mxGeometry x="555" y="456.25" width="120" height="52.5" as="geometry"/>
                </mxCell>
                <mxCell id="36" value="MediumCard.jsx&lt;br&gt;(1 product)" style="text;html=1;strokeColor=none;fillColor=none;align=center;verticalAlign=middle;whiteSpace=wrap;rounded=0;fontColor=#000000;fontSize=17;" vertex="1" parent="1">
                    <mxGeometry x="365" y="456.25" width="120" height="52.5" as="geometry"/>
                </mxCell>
                <mxCell id="37" value="Medium&amp;nbsp;&lt;br&gt;Card.jsx" style="text;html=1;strokeColor=none;fillColor=none;align=center;verticalAlign=middle;whiteSpace=wrap;rounded=0;fontColor=#000000;fontSize=17;" vertex="1" parent="1">
                    <mxGeometry x="130" y="268.75" width="120" height="52.5" as="geometry"/>
                </mxCell>
                <mxCell id="38" value="Medium&amp;nbsp;&lt;br&gt;Card.jsx" style="text;html=1;strokeColor=none;fillColor=none;align=center;verticalAlign=middle;whiteSpace=wrap;rounded=0;fontColor=#000000;fontSize=17;" vertex="1" parent="1">
                    <mxGeometry x="130" y="393.75" width="120" height="52.5" as="geometry"/>
                </mxCell>
                <mxCell id="39" value="" style="rounded=0;whiteSpace=wrap;html=1;strokeColor=#303030;fillColor=#FFCC99;" vertex="1" parent="1">
                    <mxGeometry x="490" y="90" width="370" height="80" as="geometry"/>
                </mxCell>
                <mxCell id="5" value="" style="rounded=0;whiteSpace=wrap;html=1;strokeColor=#303030;fillColor=#CCFFFF;" vertex="1" parent="1">
                    <mxGeometry x="570" y="100" width="120" height="60" as="geometry"/>
                </mxCell>
                <mxCell id="29" value="TinyCard.jsx" style="text;html=1;strokeColor=none;fillColor=none;align=center;verticalAlign=middle;whiteSpace=wrap;rounded=0;fontColor=#000000;fontSize=17;" vertex="1" parent="1">
                    <mxGeometry x="570" y="120" width="120" height="20" as="geometry"/>
                </mxCell>
                <mxCell id="6" value="" style="rounded=0;whiteSpace=wrap;html=1;strokeColor=#303030;fillColor=#CCFFFF;" vertex="1" parent="1">
                    <mxGeometry x="730" y="100" width="120" height="60" as="geometry"/>
                </mxCell>
                <mxCell id="30" value="TinyCard.jsx" style="text;html=1;strokeColor=none;fillColor=none;align=center;verticalAlign=middle;whiteSpace=wrap;rounded=0;fontColor=#000000;fontSize=17;" vertex="1" parent="1">
                    <mxGeometry x="730" y="120" width="120" height="20" as="geometry"/>
                </mxCell>
                <mxCell id="40" value="Totals" style="text;html=1;strokeColor=none;fillColor=none;align=center;verticalAlign=middle;whiteSpace=wrap;rounded=0;fontColor=#000000;fontSize=17;" vertex="1" parent="1">
                    <mxGeometry x="505" y="140" width="40" height="20" as="geometry"/>
                </mxCell>
            </root>
        </mxGraphModel>
    </diagram>
</mxfile>